<svg width="255" height="126" viewBox="0 0 255 126" fill="none" xmlns="http://www.w3.org/2000/svg">
<path d="M8.20087 37.4939C27.1599 35.2391 46.4518 34.8927 65.6756 36.3489C75.2875 37.077 84.8575 38.3079 94.3103 39.9631C103.281 41.5057 112.221 43.4075 120.857 46.0074C128.936 48.4161 136.785 51.6014 143.614 56.2207C149.897 60.5052 154.851 65.981 157.831 72.522C160.603 78.6118 161.256 85.5377 158.619 91.6111C156.069 97.6193 150.591 102.371 144.343 105.54C136.99 109.195 128.669 110.672 120.282 110.986C111.069 111.376 101.626 110.59 92.5385 109.472C84.0148 108.472 75.3186 106.591 68.1523 102.088C62.1532 98.3337 57.362 92.8715 56.3477 86.3494C54.1921 72.8607 68.5513 62.845 80.4746 57.4726C87.8859 54.1115 95.8708 51.7385 103.913 49.6596C112.287 47.536 120.788 45.8569 129.334 44.6156C146.671 42.1534 164.202 41.2987 181.818 41.3913C199.597 41.4975 217.304 42.4658 234.987 43.7213C239.307 44.0088 243.709 44.303 248.024 44.6623C250.629 44.8792 250.928 41.2875 248.323 41.0706C229.826 39.7472 211.41 38.4307 192.922 37.9761C174.516 37.5283 156.044 37.8707 137.842 39.8992C119.89 41.8762 102.12 45.6043 85.3969 51.5173C77.964 54.1533 70.779 57.7502 64.7312 62.4545C59.0331 66.8986 54.2161 72.5734 52.6709 79.3163C51.1198 86.131 53.4821 93.1993 58.3547 98.6684C63.6045 104.53 71.2317 108.421 79.2527 110.535C88.5522 113.046 98.4143 113.722 108.044 114.235C117.593 114.741 127.439 114.62 136.657 112.205C144.199 110.229 151.215 106.691 156.566 101.494C161.917 96.298 164.864 89.4548 164.555 82.3405C164.252 75.1544 161.139 68.2405 156.377 62.4191C151.326 56.1396 144.259 51.4281 136.608 47.8254C128.637 44.1236 120.076 41.6024 111.392 39.5773C101.743 37.3271 91.9708 35.573 82.0812 34.2431C62.2144 31.6484 42.0988 31.0582 22.1473 32.4347C17.2845 32.7531 12.4098 33.2151 7.60448 33.8276C4.78283 34.2436 5.54802 37.8517 8.20087 37.4939Z" fill="white"/>
<path d="M221.335 20.7381C225.809 25.0889 230.382 29.231 235.124 33.3149C237.498 35.3209 239.872 37.3269 242.334 39.2678C243.564 40.2383 244.789 41.2806 246.101 42.2579C246.949 42.9071 248.035 43.6485 248.364 44.6163C248.743 43.9969 249.129 43.3056 249.427 42.6795C237.816 46.2695 226.28 49.9382 214.67 53.5282C213.657 53.8779 213.311 55.0787 213.734 55.9096C214.226 56.8909 215.435 57.1362 216.448 56.7866C228.058 53.1965 239.594 49.5279 251.205 45.9378C252.043 45.7183 252.54 44.6747 252.268 44.001C251.518 41.19 248.306 39.4035 246.002 37.548C243.54 35.607 241.091 33.5224 238.717 31.5164C233.742 27.2685 229.024 22.8974 224.393 18.4611C222.571 16.7181 219.513 18.995 221.335 20.7381Z" fill="white"/>
</svg>
