<svg width="210" height="104" viewBox="0 0 210 104" fill="none" xmlns="http://www.w3.org/2000/svg">
<path d="M6.95122 30.9314C22.5916 29.0713 38.5066 28.7854 54.3654 29.9867C62.2948 30.5874 70.1897 31.6029 77.9878 32.9683C85.3879 34.2409 92.7633 35.8099 99.8879 37.9546C106.552 39.9417 113.028 42.5694 118.661 46.3802C123.845 49.9147 127.931 54.432 130.39 59.8281C132.676 64.8518 133.215 70.5655 131.039 75.5757C128.936 80.5323 124.417 84.4522 119.263 87.0663C113.196 90.0817 106.333 91.3002 99.4136 91.5594C91.8131 91.8812 84.023 91.2325 76.5261 90.3099C69.4944 89.4856 62.3205 87.9335 56.4086 84.2189C51.4596 81.1216 47.507 76.6155 46.6703 71.2351C44.892 60.1075 56.7377 51.8449 66.5739 47.413C72.688 44.6402 79.2751 42.6826 85.9097 40.9675C92.8178 39.2156 99.8306 37.8305 106.881 36.8065C121.183 34.7753 135.645 34.0701 150.178 34.1466C164.845 34.2342 179.452 35.0329 194.04 36.0687C197.604 36.3059 201.235 36.5486 204.795 36.845C206.944 37.0239 207.191 34.0609 205.041 33.882C189.782 32.7903 174.59 31.7041 159.339 31.3291C144.154 30.9597 128.916 31.2422 113.9 32.9156C99.0897 34.5465 84.4301 37.6221 70.6347 42.5001C64.5028 44.6746 58.5755 47.642 53.5864 51.5228C48.8856 55.189 44.9118 59.8704 43.6371 65.433C42.3575 71.0549 44.3063 76.886 48.326 81.3977C52.6568 86.2337 58.949 89.4428 65.5659 91.1873C73.2376 93.2583 81.3734 93.8164 89.3176 94.2393C97.1947 94.6566 105.318 94.5573 112.922 92.565C119.144 90.935 124.932 88.0157 129.346 83.729C133.76 79.4422 136.192 73.7969 135.937 67.9279C135.686 61.9996 133.118 56.296 129.19 51.4936C125.024 46.3132 119.194 42.4265 112.882 39.4544C106.306 36.4006 99.2438 34.3207 92.0797 32.65C84.1196 30.7937 76.0578 29.3467 67.8993 28.2496C51.5101 26.109 34.9156 25.6222 18.4564 26.7577C14.4449 27.0204 10.4234 27.4016 6.45922 27.9068C4.13148 28.25 4.76273 31.2265 6.95122 30.9314Z" fill="white"/>
<path d="M182.77 17.1076C186.461 20.6969 190.234 24.1139 194.146 27.4829C196.104 29.1378 198.063 30.7927 200.094 32.3939C201.109 33.1945 202.119 34.0544 203.202 34.8605C203.901 35.3961 204.797 36.0078 205.068 36.8061C205.381 36.2951 205.699 35.7249 205.945 35.2084C196.367 38.17 186.85 41.1965 177.272 44.1581C176.436 44.4465 176.151 45.4372 176.5 46.1226C176.906 46.9322 177.903 47.1345 178.739 46.8461C188.317 43.8845 197.833 40.858 207.412 37.8963C208.103 37.7152 208.513 36.8543 208.289 36.2986C207.67 33.9796 205.021 32.5058 203.119 30.9751C201.089 29.3739 199.068 27.6542 197.11 25.9993C193.006 22.495 189.114 18.889 185.294 15.2292C183.79 13.7913 181.267 15.6697 182.77 17.1076Z" fill="white"/>
</svg>
