<svg width="36" height="36" viewBox="0 0 36 36" fill="none" xmlns="http://www.w3.org/2000/svg">
<path d="M5.56673 22.267H20.0404V27.0916C20.0404 27.5503 20.3217 27.9615 20.7485 28.1285C20.8799 28.1797 21.0172 28.2049 21.1537 28.2049C21.4581 28.2049 21.7572 28.0795 21.9724 27.8472L30.8793 18.1981C31.2846 17.7587 31.2705 17.078 30.8481 16.6557L21.9413 7.74884C21.6228 7.43041 21.1434 7.33541 20.7277 7.50761C20.3113 7.67906 20.0404 8.08507 20.0404 8.53561V13.3602H5.56673C4.95215 13.3602 4.45337 13.8582 4.45337 14.4735V21.1537C4.45337 21.769 4.95215 22.267 5.56673 22.267Z" fill="#3E4A08"/>
</svg>
