<svg width="56" height="57" viewBox="0 0 56 57" fill="none" xmlns="http://www.w3.org/2000/svg">
<circle cx="28" cy="28.5" r="28" fill="#D3D0EC"/>
<path d="M37.5144 33.5907C38.5165 33.5907 39.4775 33.9928 40.1861 34.7086C40.8947 35.4243 41.2927 36.395 41.2927 37.4072V38.965C41.2929 39.9387 40.9916 40.8881 40.4309 41.6802C37.8353 45.3507 33.5933 47.1665 27.8477 47.1665C22.1004 47.1665 17.8618 45.3473 15.2712 41.6751C14.7137 40.8843 14.4142 39.9376 14.4144 38.9667V37.4055C14.4149 36.3942 14.8127 35.4244 15.5205 34.7092C16.2283 33.9939 17.1882 33.5916 18.1894 33.5907H37.5144ZM27.8477 13.2339C30.0755 13.2339 32.2121 14.1278 33.7874 15.719C35.3627 17.3103 36.2477 19.4684 36.2477 21.7187C36.2477 23.9691 35.3627 26.1272 33.7874 27.7184C32.2121 29.3096 30.0755 30.2036 27.8477 30.2036C25.6199 30.2036 23.4833 29.3096 21.908 27.7184C20.3327 26.1272 19.4477 23.9691 19.4477 21.7187C19.4477 19.4684 20.3327 17.3103 21.908 15.719C23.4833 14.1278 25.6199 13.2339 27.8477 13.2339Z" fill="#7B77A2"/>
</svg>
