<svg width="39" height="39" viewBox="0 0 39 39" fill="none" xmlns="http://www.w3.org/2000/svg">
<path d="M19.5 0C8.73015 0 0 8.73015 0 19.5C0 30.2698 8.73015 39 19.5 39C30.2698 39 39 30.2698 39 19.5C39 8.73015 30.2698 0 19.5 0ZM30.6287 15.0287L16.9786 28.6787C16.5984 29.0589 16.0992 29.25 15.6 29.25C15.1008 29.25 14.6016 29.0589 14.2214 28.6787L8.37135 22.8286C7.6089 22.0662 7.6089 20.8338 8.37135 20.0714C9.1338 19.3089 10.3662 19.3089 11.1286 20.0714L15.6 24.5427L27.8713 12.2714C28.6338 11.5089 29.8662 11.5089 30.6287 12.2714C31.3911 13.0338 31.3911 14.2662 30.6287 15.0287Z" fill="url(#paint0_linear_3810_1429)"/>
<defs>
<linearGradient id="paint0_linear_3810_1429" x1="37.662" y1="40.1907" x2="14.2037" y2="-6.96951" gradientUnits="userSpaceOnUse">
<stop stop-color="#88CB1A"/>
<stop offset="1" stop-color="#F2FF5B"/>
</linearGradient>
</defs>
</svg>
