<svg width="46" height="46" viewBox="0 0 46 46" fill="none" xmlns="http://www.w3.org/2000/svg">
<path fill-rule="evenodd" clip-rule="evenodd" d="M22.7421 4.07324C27.7242 4.16327 32.4718 6.2056 35.9632 9.76071C39.4547 13.3158 41.4109 18.0995 41.4109 23.0824C41.4109 28.0653 39.4547 32.849 35.9632 36.4041C32.4718 39.9592 27.7242 42.0016 22.7421 42.0916C17.7601 42.0016 13.0125 39.9592 9.52102 36.4041C6.02958 32.849 4.07336 28.0653 4.07336 23.0824C4.07336 18.0995 6.02958 13.3158 9.52102 9.76071C13.0125 6.2056 17.7601 4.16327 22.7421 4.07324ZM18.7944 29.2574L14.1391 24.598C13.7581 24.2156 13.5441 23.6978 13.5441 23.1579C13.5441 22.6181 13.7581 22.1003 14.1391 21.7179C14.5221 21.3372 15.0402 21.1235 15.5802 21.1235C16.1202 21.1235 16.6383 21.3372 17.0213 21.7179L20.3007 25.0014L28.463 16.8391C28.8454 16.4581 29.3632 16.2441 29.903 16.2441C30.4429 16.2441 30.9607 16.4581 31.3431 16.8391C31.7236 17.2218 31.9372 17.7395 31.9372 18.2792C31.9372 18.8188 31.7236 19.3366 31.3431 19.7192L21.7387 29.3236C21.5437 29.5176 21.3115 29.6702 21.0562 29.7723C20.8008 29.8743 20.5274 29.9237 20.2524 29.9175C19.9775 29.9114 19.7066 29.8497 19.4561 29.7363C19.2055 29.6228 18.9805 29.46 18.7944 29.2574Z" fill="#33470D"/>
</svg>
