<svg width="44" height="44" viewBox="0 0 44 44" fill="none" xmlns="http://www.w3.org/2000/svg">
<path d="M22.0001 3.6665C11.8746 3.6665 3.66675 11.8743 3.66675 21.9998C3.66675 32.1253 11.8746 40.3332 22.0001 40.3332C32.1256 40.3332 40.3334 32.1253 40.3334 21.9998C40.3334 11.8743 32.1256 3.6665 22.0001 3.6665ZM28.931 26.9856C29.4682 27.5228 29.4682 28.3927 28.931 28.9298C28.6624 29.1993 28.3104 29.3332 27.9584 29.3332C27.6064 29.3332 27.2544 29.1993 26.9858 28.9308L22.0001 23.9441L17.0143 28.9298C16.7457 29.1993 16.3937 29.3332 16.0417 29.3332C15.6897 29.3332 15.3377 29.1993 15.0692 28.9308C14.532 28.3936 14.532 27.5237 15.0692 26.9865L20.0558 21.9998L15.0701 17.0141C14.5329 16.4769 14.5329 15.607 15.0701 15.0698C15.6072 14.5327 16.4772 14.5327 17.0143 15.0698L22.0001 20.0556L26.9858 15.0698C27.523 14.5327 28.3929 14.5327 28.9301 15.0698C29.4672 15.607 29.4672 16.4769 28.9301 17.0141L23.9443 21.9998L28.931 26.9856Z" fill="#43456A"/>
</svg>
