<svg width="21" height="20" viewBox="0 0 21 20" fill="none" xmlns="http://www.w3.org/2000/svg">
<path fill-rule="evenodd" clip-rule="evenodd" d="M0.863514 0.0433441C0.484587 0.167473 0.187349 0.464953 0.0554673 0.851996C-0.0300577 1.10296 -0.00316458 1.51621 0.114866 1.76523C0.179596 1.90176 1.20028 2.94615 4.21874 5.9644L8.23652 9.98186L4.20347 14.0202C0.351131 17.8777 0.166634 18.0691 0.0850255 18.2923C-0.0859842 18.7598 0.00365963 19.2364 0.329648 19.5931C0.583518 19.8709 0.851278 19.9899 1.23113 19.9939C1.80215 19.9999 1.46271 20.3003 5.96578 15.8028L10.014 11.7597L14.0418 15.7837C16.8496 18.5888 18.1247 19.8363 18.2513 19.9018C18.3999 19.9787 18.4957 19.9959 18.7763 19.9958C19.0698 19.9957 19.1488 19.9802 19.3214 19.8887C19.5637 19.7603 19.7836 19.5374 19.9119 19.2902C20.0485 19.0268 20.0483 18.5066 19.9115 18.2201C19.834 18.058 19.0235 17.2256 15.803 14.0001L11.7909 9.98206L15.7911 5.98467C18.7622 3.01576 19.8189 1.93539 19.8986 1.78542C19.9902 1.61316 20.0061 1.53317 20.0069 1.24029C20.0077 0.957428 19.9907 0.862091 19.91 0.698269C19.7851 0.444399 19.5465 0.205955 19.3072 0.0958787C19.03 -0.0316821 18.5082 -0.0271999 18.2312 0.105126C18.0691 0.182534 17.2384 0.991227 14.0215 4.20326L10.0138 8.20493L6.00608 4.19934C2.64464 0.83972 1.96581 0.179465 1.79646 0.104803C1.54868 -0.00442551 1.0997 -0.0339838 0.863514 0.0433441Z" fill="white"/>
</svg>
