<svg width="187" height="44" viewBox="0 0 187 44" fill="none" xmlns="http://www.w3.org/2000/svg">
<g clip-path="url(#clip0_7684_473)">
<path fill-rule="evenodd" clip-rule="evenodd" d="M24.0422 11.9375L30.3861 0.449707H43.0626L29.9998 23.3242L23.5979 12.7407L24.0422 11.9375Z" fill="white"/>
<path fill-rule="evenodd" clip-rule="evenodd" d="M40.8262 43.0225H30.6357L23.2083 30.3023L29.7991 19.3887L43.602 43.0225H40.8262Z" fill="white"/>
<path fill-rule="evenodd" clip-rule="evenodd" d="M184.428 43.0227H158.828V0.449707H170.111V32.3495H186.021V43.0227H184.428Z" fill="white"/>
<path fill-rule="evenodd" clip-rule="evenodd" d="M155.025 43.0227H129.424V0.449707H140.708V32.3495H156.619V43.0227H155.025Z" fill="white"/>
<path fill-rule="evenodd" clip-rule="evenodd" d="M122.809 43.0227H113.119V0.449707H124.403V43.0227H122.809Z" fill="white"/>
<path fill-rule="evenodd" clip-rule="evenodd" d="M108.054 43.0227H97.5434L88.4807 28.0113L86.5977 30.3884V43.0227H75.314V0.449707H86.5977V14.2799L97.0318 0.449707H110.788L96.2116 18.8238L110.876 43.0227H108.054Z" fill="white"/>
<path fill-rule="evenodd" clip-rule="evenodd" d="M72.4867 30.2882C72.4867 34.3726 71.0998 37.6071 68.3276 39.9917C65.6299 42.3115 62.1545 43.4726 57.9051 43.4726C55.0878 43.4726 52.436 43.0333 49.9552 42.1548C47.4698 41.2763 45.1697 39.9601 43.0601 38.2106L42.0369 37.3623L47.186 28.1839L48.6444 29.311C50.2533 30.5542 51.8269 31.481 53.3599 32.0897C54.8363 32.6751 56.2969 32.9689 57.7365 32.9689C58.4058 32.9689 58.9773 32.908 59.4471 32.7881C59.8747 32.6767 60.2361 32.5169 60.526 32.3111C60.7602 32.1454 60.9302 31.9541 61.0341 31.7423C61.1463 31.5133 61.2028 31.215 61.2028 30.8503C61.2028 30.5345 61.1463 30.2558 61.035 30.0185C60.9168 29.7652 60.7248 29.5235 60.4635 29.296C60.1111 28.9938 59.5456 28.6322 58.7687 28.2147C57.9353 27.7671 56.8564 27.2572 55.5343 26.6883C54.7196 26.3455 53.984 26.0268 53.332 25.7337C52.683 25.4391 52.0942 25.1611 51.5732 24.9004C51.0544 24.6404 50.5214 24.3444 49.9785 24.015C49.4417 23.6926 48.9004 23.3355 48.3538 22.9475C47.7651 22.5256 47.2531 22.1127 46.8239 21.7073C46.3555 21.2666 45.9543 20.8176 45.626 20.364C45.3113 19.9293 45.0162 19.432 44.7443 18.876C44.4794 18.3343 44.2482 17.7631 44.0525 17.1649C43.8469 16.535 43.691 15.8622 43.5895 15.1531C43.4878 14.4472 43.4365 13.7156 43.4365 12.9592C43.4365 11.0424 43.7739 9.29365 44.4463 7.71596C45.1261 6.12094 46.141 4.72408 47.4865 3.52757C48.8184 2.34997 50.3362 1.46481 52.0408 0.874822C53.7249 0.292448 55.5689 0 57.5678 0C60.0223 0 62.339 0.346602 64.5134 1.03757C66.6991 1.7322 68.7131 2.76897 70.5516 4.14329L71.5891 4.91857L67.1079 14.4494L65.5802 13.4482C64.0466 12.443 62.6077 11.6941 61.2722 11.2051C59.9929 10.738 58.7958 10.5036 57.6807 10.5036C56.6206 10.5036 55.8346 10.7056 55.3234 11.108C55.1111 11.2813 54.9545 11.4652 54.8611 11.6587C54.77 11.8645 54.7204 12.1107 54.7204 12.3972C54.7204 13.0314 54.9313 13.5099 55.3497 13.8264C55.7036 14.0938 56.3202 14.4554 57.1937 14.9075C58.1198 15.386 59.3265 15.9616 60.8076 16.6284C64.856 18.4405 67.7788 20.2849 69.5706 22.1593C70.5532 23.1893 71.2879 24.3963 71.7744 25.7782C72.2487 27.1351 72.4867 28.6367 72.4867 30.2882Z" fill="white"/>
<path fill-rule="evenodd" clip-rule="evenodd" d="M17.0999 43.0227H5.35314L14.5558 26.9835H0V16.4181H15.1018L5.77772 0.449707H18.7443L30.9586 21.3689L17.9966 43.0227H17.0999Z" fill="#ADCE18"/>
</g>
<defs>
<clipPath id="clip0_7684_473">
<rect width="186.022" height="44" fill="white"/>
</clipPath>
</defs>
</svg>
