<svg width="171" height="78" viewBox="0 0 171 78" fill="none" xmlns="http://www.w3.org/2000/svg">
<path d="M93.2071 48.4119C90.8783 48.4119 88.9468 47.6898 87.4123 46.2456C85.8779 44.7834 85.1106 42.9149 85.1106 40.6404C85.1106 38.3658 85.8779 36.5064 87.4123 35.0622C88.9468 33.6 90.8783 32.8689 93.2071 32.8689C94.7235 32.8689 96.0232 33.2209 97.1064 33.9249C98.1895 34.629 99.038 35.5406 99.6517 36.6598L96.6731 38.095C96.3301 37.4812 95.8517 36.9848 95.238 36.6057C94.6242 36.2085 93.9472 36.01 93.2071 36.01C91.9254 36.01 90.8603 36.4522 90.0118 37.3368C89.1634 38.2033 88.7392 39.3045 88.7392 40.6404C88.7392 41.9762 89.1634 43.0864 90.0118 43.971C90.8603 44.8375 91.9254 45.2708 93.2071 45.2708C93.9653 45.2708 94.6513 45.0812 95.265 44.7021C95.8969 44.323 96.3662 43.8266 96.6731 43.2128L99.6517 44.5938C99.056 45.7311 98.2076 46.6518 97.1064 47.3558C96.0232 48.0598 94.7235 48.4119 93.2071 48.4119ZM111.058 48.0869H100.93V33.1938H104.505V44.9729H111.058V48.0869ZM125.057 46.733C123.866 47.8522 122.115 48.4119 119.804 48.4119C117.493 48.4119 115.742 47.8522 114.551 46.733C113.359 45.6138 112.764 44.0974 112.764 42.1838V33.1938H116.365V41.886C116.365 42.9149 116.663 43.7363 117.259 44.3501C117.872 44.9639 118.721 45.2708 119.804 45.2708C120.887 45.2708 121.727 44.9639 122.322 44.3501C122.936 43.7363 123.243 42.9149 123.243 41.886V33.1938H126.844V42.1567C126.844 44.0703 126.249 45.5957 125.057 46.733ZM137.967 48.0869H129.41V33.1938H137.696C139.158 33.1938 140.286 33.5639 141.081 34.304C141.893 35.0442 142.299 35.9468 142.299 37.0119C142.299 37.8784 142.055 38.6095 141.568 39.2052C141.099 39.8009 140.494 40.1981 139.754 40.3967C140.584 40.5952 141.27 41.0285 141.812 41.6964C142.353 42.3643 142.624 43.1496 142.624 44.0522C142.624 45.2076 142.209 46.1734 141.378 46.9496C140.566 47.7078 139.429 48.0869 137.967 48.0869ZM137.262 45.0541C137.786 45.0541 138.201 44.9187 138.508 44.648C138.815 44.3772 138.968 44.0161 138.968 43.5648C138.968 43.1316 138.815 42.7705 138.508 42.4817C138.201 42.1748 137.786 42.0214 137.262 42.0214H132.984V45.0541H137.262ZM137.1 38.9886C137.587 38.9886 137.967 38.8622 138.237 38.6095C138.526 38.3567 138.671 38.0228 138.671 37.6076C138.671 37.1924 138.526 36.8584 138.237 36.6057C137.967 36.3529 137.587 36.2266 137.1 36.2266H132.984V38.9886H137.1ZM151.89 48.0869H149.318L150.888 43.5107H148.316L146.772 48.0869H144.227L145.77 43.5107H143.171L143.875 41.3173H146.528L147.991 36.8223H145.337L146.014 34.656H148.749L150.265 30.0256H152.811L151.294 34.656H153.84L155.356 30.0256H157.928L156.358 34.656H158.985L158.335 36.8223H155.627L154.137 41.3173H156.872L156.195 43.5107H153.406L151.89 48.0869ZM151.592 41.3173L153.081 36.8223H150.536L149.074 41.3173H151.592ZM167.932 48.0869H164.087V34.981L161.081 38.0408L158.888 35.7392L164.574 30.0256H167.932V48.0869Z" fill="white"/>
<rect y="5.74805" width="72.4807" height="72.4807" transform="rotate(-4.5482 0 5.74805)" fill="url(#paint0_linear_3810_1448)"/>
<path d="M37.414 52.6221H29.0081V41.4142H17.0072V52.6221H8.54846V23.545H17.0072V34.1185H29.0081V23.545H37.414V52.6221ZM69.8853 52.6221H60.3692L55.5054 43.3174H51.8047V52.6221H43.3459V23.545H59.1532C62.3958 23.545 64.9687 24.4966 66.8719 26.3999C68.7751 28.3031 69.7267 30.6469 69.7267 33.4312C69.7267 35.8984 69.1099 37.8897 67.8764 39.4052C66.6428 40.9208 65.2154 41.9252 63.5941 42.4187L69.8853 52.6221ZM58.1488 36.0217C59.0651 36.0217 59.7877 35.775 60.3163 35.2816C60.8802 34.7882 61.1622 34.1714 61.1622 33.4312C61.1622 32.6558 60.8802 32.0391 60.3163 31.5809C59.7877 31.0874 59.0651 30.8407 58.1488 30.8407H51.8047V36.0217H58.1488Z" fill="#2C2C2C"/>
<defs>
<linearGradient id="paint0_linear_3810_1448" x1="69.994" y1="80.4416" x2="26.3973" y2="-7.20464" gradientUnits="userSpaceOnUse">
<stop stop-color="#88CB1A"/>
<stop offset="1" stop-color="#F2FF5B"/>
</linearGradient>
</defs>
</svg>
