<svg width="25" height="25" viewBox="0 0 25 25" fill="none" xmlns="http://www.w3.org/2000/svg">
<path d="M11.9358 3.45078L12.8311 5.56276C13.2212 6.48307 13.0051 7.56536 12.2957 8.23828L10.6228 9.82578C10.4342 10.0049 10.3363 10.2648 10.3785 10.5211C10.54 11.5008 10.8978 12.4669 11.4519 13.42C12.0051 14.3711 12.6785 15.1805 13.4728 15.8477C13.6832 16.0242 13.9754 16.07 14.2358 15.9831L16.1874 15.332C17.0858 15.0325 18.0639 15.3768 18.615 16.1862L19.8988 18.0721C20.5394 19.0133 20.4243 20.3112 19.6295 21.1091L18.7775 21.9643C17.9295 22.8154 16.7186 23.1242 15.5983 22.7747C12.9535 21.9497 10.5223 19.5008 8.30351 15.4273C6.08163 11.3482 5.29778 7.88671 5.95142 5.04401C6.22642 3.84765 7.07799 2.89505 8.18997 2.53984L9.31132 2.18151C10.3634 1.84661 11.4858 2.38932 11.9358 3.45078Z" fill="url(#paint0_linear_3810_1394)"/>
<defs>
<linearGradient id="paint0_linear_3810_1394" x1="19.8118" y1="23.5522" x2="4.9737" y2="2.67046" gradientUnits="userSpaceOnUse">
<stop stop-color="#88CB1A"/>
<stop offset="1" stop-color="#F2FF5B"/>
</linearGradient>
</defs>
</svg>
