<svg width="104" height="104" viewBox="0 0 104 104" fill="none" xmlns="http://www.w3.org/2000/svg">
<circle cx="52" cy="52" r="52" fill="#252641"/>
<path d="M62.2354 30.8169C61.7647 30.8306 61.3178 31.027 60.9893 31.3644L53.7393 38.6144C53.3995 38.9544 53.2086 39.4153 53.2086 39.8959C53.2086 40.3766 53.3995 40.8375 53.7393 41.1774L60.9893 48.4274C61.1563 48.6014 61.3563 48.7403 61.5777 48.8359C61.7991 48.9316 62.0373 48.9821 62.2784 48.9846C62.5196 48.987 62.7588 48.9413 62.982 48.8502C63.2053 48.759 63.4081 48.6243 63.5786 48.4538C63.7491 48.2832 63.8839 48.0804 63.975 47.8572C64.0662 47.6339 64.1119 47.3947 64.1094 47.1536C64.107 46.9124 64.0564 46.6742 63.9608 46.4529C63.8651 46.2315 63.7262 46.0315 63.5523 45.8644L59.3963 41.7084H73.1458C73.386 41.7118 73.6244 41.6675 73.8473 41.5779C74.0702 41.4883 74.273 41.3554 74.4441 41.1867C74.6151 41.0181 74.751 40.8171 74.8437 40.5955C74.9364 40.3739 74.9841 40.1361 74.9841 39.8959C74.9841 39.6557 74.9364 39.4179 74.8437 39.1963C74.751 38.9747 74.6151 38.7738 74.4441 38.6051C74.273 38.4365 74.0702 38.3035 73.8473 38.214C73.6244 38.1244 73.386 38.08 73.1458 38.0834H59.3963L63.5523 33.9274C63.8138 33.6728 63.9923 33.3451 64.0645 32.9873C64.1366 32.6295 64.0991 32.2583 63.9568 31.9221C63.8145 31.586 63.5741 31.3007 63.2669 31.1035C62.9598 30.9063 62.6002 30.8064 62.2354 30.8169ZM39.1874 30.8476C38.584 30.8007 37.9632 30.8675 37.3536 31.0624L34.7529 31.8954C32.1731 32.7195 30.1965 34.9279 29.5585 37.7035C28.042 44.2986 29.8614 52.3274 35.0125 61.7899C40.16 71.2403 45.8003 76.9224 51.9362 78.8364C54.5354 79.6472 57.3465 78.9322 59.3137 76.9578L61.289 74.973C63.1329 73.1218 63.4007 70.1094 61.9144 67.926L58.9361 63.5505C57.6577 61.6727 55.3871 60.8756 53.3027 61.5704L48.7762 63.0808C48.172 63.2826 47.4943 63.1766 47.0061 62.7669C45.1634 61.2191 43.6 59.34 42.3168 57.1336C41.0311 54.9223 40.2015 52.6804 39.8269 50.4075C39.7291 49.813 39.9559 49.2113 40.3933 48.7956L44.2756 45.1116C45.9213 43.5504 46.422 41.0398 45.517 38.9047L43.4401 34.0053C42.6571 32.1584 40.9974 30.9883 39.1874 30.8476Z" fill="white"/>
</svg>
