<svg width="104" height="104" viewBox="0 0 104 104" fill="none" xmlns="http://www.w3.org/2000/svg">
<circle cx="52" cy="52" r="52" fill="url(#paint0_linear_7684_960)"/>
<path d="M60.1738 32C58.7048 32 57.3212 32.5723 56.2832 33.6113L39.6113 50.2832C38.5723 51.3222 38 52.7048 38 54.1738C38 55.6428 38.5723 57.0245 39.6113 58.0625L49.9375 68.3887C50.9765 69.4277 52.3581 70 53.8281 70C55.2971 70 56.6778 69.4277 57.7168 68.3887L74.3906 51.7168C75.4286 50.6788 76 49.2952 76 47.8262V36.5C76 34.019 73.982 32 71.5 32H60.1738ZM50.1738 34C48.7048 34 47.3222 34.5723 46.2832 35.6113L29.6113 52.2832C28.5723 53.3222 28 54.7048 28 56.1738C28 57.6428 28.5723 59.0245 29.6113 60.0625L39.9375 70.3887C40.9765 71.4277 42.3581 72 43.8281 72C45.2971 72 46.6778 71.4277 47.7168 70.3887L48.4141 69.6914L38.1973 59.4766C36.7803 58.0606 36 56.1778 36 54.1738C36 52.1708 36.7803 50.2851 38.1973 48.8691L53.0664 34H50.1738ZM67 38C68.657 38 70 39.343 70 41C70 42.657 68.657 44 67 44C65.343 44 64 42.657 64 41C64 39.343 65.343 38 67 38Z" fill="#3E4A08"/>
<defs>
<linearGradient id="paint0_linear_7684_960" x1="100.432" y1="107.175" x2="37.8766" y2="-18.5854" gradientUnits="userSpaceOnUse">
<stop stop-color="#88CB1A"/>
<stop offset="1" stop-color="#F2FF5B"/>
</linearGradient>
</defs>
</svg>
