<svg width="105" height="105" viewBox="0 0 105 105" fill="none" xmlns="http://www.w3.org/2000/svg">
<circle cx="52.5" cy="52.5" r="52.5" fill="#1F1F1F"/>
<path d="M52.4997 29.6016C43.665 29.6041 36.458 36.7874 36.458 45.6253C36.458 50.208 38.3961 54.356 41.4867 57.2761C41.8502 57.6194 42.1172 58.1029 42.2409 58.6569L45.0674 71.3797C45.5894 73.7295 47.6936 75.417 50.1006 75.417H54.8988C57.306 75.417 59.4096 73.7293 59.9319 71.3797L62.7607 58.6569V58.6547C62.8833 58.1023 63.1487 57.6214 63.5127 57.2784V57.2761H63.5149C66.6041 54.3561 68.5413 50.208 68.5413 45.6253C68.5413 36.7874 61.3343 29.6041 52.4997 29.6016ZM52.4997 33.0391C59.4821 33.0411 65.1038 38.6461 65.1038 45.6253C65.1038 49.2422 63.5852 52.4782 61.1516 54.7786C60.2382 55.6406 59.6614 56.7509 59.4038 57.9117L58.061 63.9587H46.9384L45.5956 57.9095C45.3366 56.7493 44.7607 55.6407 43.8477 54.7786C41.4131 52.4783 39.8955 49.2422 39.8955 45.6253C39.8955 38.6461 45.5172 33.0411 52.4997 33.0391ZM47.7037 67.3962H57.2956L56.5772 70.6345C56.4006 71.4291 55.7136 71.9795 54.8988 71.9795H50.1006C49.2832 71.9795 48.5991 71.4312 48.4221 70.6345L47.7037 67.3962Z" fill="url(#paint0_linear_3810_1478)"/>
<defs>
<linearGradient id="paint0_linear_3810_1478" x1="67.4406" y1="76.8158" x2="34.8132" y2="30.8823" gradientUnits="userSpaceOnUse">
<stop stop-color="#88CB1A"/>
<stop offset="1" stop-color="#F2FF5B"/>
</linearGradient>
</defs>
</svg>
