<svg width="0" height="0" class="hidden">

 
    <symbol viewBox="0 0 48 48" xmlns="http://www.w3.org/2000/svg" id="result1">
      <path d="M13 7C11.125 7 9.52882 7.75713 8.50391 8.91016C7.479 10.0632 7 11.5417 7 13C7 14.4583 7.479 15.9368 8.50391 17.0898C9.52882 18.2429 11.125 19 13 19C14.875 19 16.4712 18.2429 17.4961 17.0898C18.521 15.9368 19 14.4583 19 13C19 11.5417 18.521 10.0632 17.4961 8.91016C16.4712 7.75713 14.875 7 13 7ZM35 7C33.125 7 31.5288 7.75713 30.5039 8.91016C29.479 10.0632 29 11.5417 29 13C29 14.4583 29.479 15.9368 30.5039 17.0898C31.5288 18.2429 33.125 19 35 19C36.875 19 38.4712 18.2429 39.4961 17.0898C40.521 15.9368 41 14.4583 41 13C41 11.5417 40.521 10.0632 39.4961 8.91016C38.4712 7.75713 36.875 7 35 7ZM13 10C14.125 10 14.7788 10.3679 15.2539 10.9023C15.729 11.4368 16 12.2083 16 13C16 13.7917 15.729 14.5632 15.2539 15.0977C14.7788 15.6321 14.125 16 13 16C11.875 16 11.2212 15.6321 10.7461 15.0977C10.271 14.5632 10 13.7917 10 13C10 12.2083 10.271 11.4368 10.7461 10.9023C11.2212 10.3679 11.875 10 13 10ZM35 10C36.125 10 36.7788 10.3679 37.2539 10.9023C37.729 11.4368 38 12.2083 38 13C38 13.7917 37.729 14.5632 37.2539 15.0977C36.7788 15.6321 36.125 16 35 16C33.875 16 33.2212 15.6321 32.7461 15.0977C32.271 14.5632 32 13.7917 32 13C32 12.2083 32.271 11.4368 32.7461 10.9023C33.2212 10.3679 33.875 10 35 10ZM24 17C22.4087 17 20.8826 17.6321 19.7574 18.7574C18.6321 19.8826 18 21.4087 18 23C18 24.5913 18.6321 26.1174 19.7574 27.2426C20.8826 28.3679 22.4087 29 24 29C25.5913 29 27.1174 28.3679 28.2426 27.2426C29.3679 26.1174 30 24.5913 30 23C30 21.4087 29.3679 19.8826 28.2426 18.7574C27.1174 17.6321 25.5913 17 24 17ZM7.5 21C5.57 21 4 22.57 4 24.5V27C4 30.36 7.95 33 13 33H13.2109C13.6609 31.39 14.8394 30.0797 16.3594 29.4297C15.4094 29.7797 14.26 30 13 30C9.57 30 7 28.42 7 27V24.5C7 24.22 7.22 24 7.5 24H16.0605C16.0205 23.67 16 23.34 16 23C16 22.31 16.09 21.64 16.25 21H7.5ZM31.75 21C31.91 21.64 32 22.31 32 23C32 23.34 31.9795 23.67 31.9395 24H40.5C40.78 24 41 24.22 41 24.5V27C41 28.42 38.43 30 35 30C33.74 30 32.5906 29.7797 31.6406 29.4297C33.1606 30.0797 34.3391 31.39 34.7891 33H35C40.05 33 44 30.36 44 27V24.5C44 22.57 42.43 21 40.5 21H31.75ZM18.5 31C16.57 31 15 32.57 15 34.5V37C15 40.364 18.953 43 24 43C29.047 43 33 40.364 33 37V34.5C33 32.57 31.43 31 29.5 31H18.5Z" fill="white"/>
    </symbol>

    
    <symbol viewBox="0 0 48 48" xmlns="http://www.w3.org/2000/svg" id="result2">
      <path d="M24 4C18.4949 4 14 8.49492 14 14C14 19.5051 18.4949 24 24 24C29.5051 24 34 19.5051 34 14C34 8.49492 29.5051 4 24 4ZM24 7C27.8838 7 31 10.1162 31 14C31 17.8838 27.8838 21 24 21C20.1162 21 17 17.8838 17 14C17 10.1162 20.1162 7 24 7ZM12.5 28C10.0325 28 8 30.0325 8 32.5V33.6992C8 36.6401 9.86471 39.278 12.709 41.0918C15.5533 42.9056 19.4448 44 24 44C28.5552 44 32.4467 42.9056 35.291 41.0918C38.1353 39.278 40 36.6401 40 33.6992V32.5C40 30.0325 37.9675 28 35.5 28H12.5ZM12.5 31H35.5C36.3465 31 37 31.6535 37 32.5V33.6992C37 35.3644 35.9275 37.1278 33.6777 38.5625C31.428 39.9972 28.0688 41 24 41C19.9312 41 16.572 39.9972 14.3223 38.5625C12.0725 37.1278 11 35.3644 11 33.6992V32.5C11 31.6535 11.6535 31 12.5 31Z" fill="white"/>
    </symbol>

    <symbol viewBox="0 0 48 48" xmlns="http://www.w3.org/2000/svg" id="result3">
      <path d="M24 2C18.4949 2 14 6.49492 14 12C14 17.5051 18.4949 22 24 22C29.5051 22 34 17.5051 34 12C34 6.49492 29.5051 2 24 2ZM24 5C27.8838 5 31 8.11624 31 12C31 15.8838 27.8838 19 24 19C20.1162 19 17 15.8838 17 12C17 8.11624 20.1162 5 24 5ZM11.9785 26C9.7987 26 8 27.7987 8 29.9785V31.5C8 35.1042 10.2793 37.8922 13.3066 39.5625C16.334 41.2328 20.1681 42 24 42C27.8319 42 31.666 41.2328 34.6934 39.5625C37.2746 38.1383 39.2173 35.8626 39.7617 33H40.002V29.9785C40.002 27.7987 38.2013 26 36.0215 26H11.9785ZM11.9785 29H21.6914L23.1426 32.1426L20.5059 38.7363C18.3469 38.4157 16.334 37.8082 14.7559 36.9375C12.3457 35.6078 11 33.8958 11 31.5V29.9785C11 29.4203 11.4203 29 11.9785 29ZM26.3086 29H36.0215C36.5797 29 37.002 29.4203 37.002 29.9785V30H37V31.5C37 33.8958 35.6543 35.6078 33.2441 36.9375C31.666 37.8082 29.6531 38.4157 27.4941 38.7363L24.8574 32.1426L26.3086 29Z" fill="white"/>
    </symbol>

    
    <symbol viewBox="0 0 65 66" xmlns="http://www.w3.org/2000/svg" id="dif1">
     <path d="M32.5001 6.18896C17.5664 6.18896 5.41675 18.3386 5.41675 33.2723C5.41675 48.206 17.5664 60.3556 32.5001 60.3556C47.4337 60.3556 59.5834 48.206 59.5834 33.2723C59.5834 18.3386 47.4337 6.18896 32.5001 6.18896ZM32.5001 10.2515C45.2382 10.2515 55.5209 20.5342 55.5209 33.2723C55.5209 46.0104 45.2382 56.2931 32.5001 56.2931C19.762 56.2931 9.47925 46.0104 9.47925 33.2723C9.47925 20.5342 19.762 10.2515 32.5001 10.2515ZM24.3751 23.116C23.4772 23.116 22.6161 23.4727 21.9812 24.1076C21.3463 24.7425 20.9897 25.6036 20.9897 26.5015C20.9897 27.3993 21.3463 28.2604 21.9812 28.8953C22.6161 29.5302 23.4772 29.8869 24.3751 29.8869C25.273 29.8869 26.134 29.5302 26.7689 28.8953C27.4038 28.2604 27.7605 27.3993 27.7605 26.5015C27.7605 25.6036 27.4038 24.7425 26.7689 24.1076C26.134 23.4727 25.273 23.116 24.3751 23.116ZM40.6251 23.116C39.7272 23.116 38.8661 23.4727 38.2312 24.1076C37.5963 24.7425 37.2397 25.6036 37.2397 26.5015C37.2397 27.3993 37.5963 28.2604 38.2312 28.8953C38.8661 29.5302 39.7272 29.8869 40.6251 29.8869C41.523 29.8869 42.384 29.5302 43.0189 28.8953C43.6538 28.2604 44.0105 27.3993 44.0105 26.5015C44.0105 25.6036 43.6538 24.7425 43.0189 24.1076C42.384 23.4727 41.523 23.116 40.6251 23.116ZM32.5001 35.9806C27.3447 35.9806 22.718 38.396 19.7466 42.1722C19.5774 42.3814 19.4514 42.6221 19.376 42.8804C19.3006 43.1387 19.2772 43.4094 19.3073 43.6767C19.3373 43.9441 19.4202 44.2028 19.551 44.4379C19.6819 44.673 19.8582 44.8797 20.0696 45.0461C20.281 45.2125 20.5234 45.3353 20.7826 45.4073C21.0419 45.4792 21.3128 45.499 21.5798 45.4654C21.8467 45.4318 22.1043 45.3455 22.3377 45.2115C22.571 45.0775 22.7754 44.8985 22.9389 44.6849C25.1675 41.8527 28.6097 40.0431 32.5001 40.0431C36.3905 40.0431 39.8327 41.8527 42.0612 44.6849C42.2248 44.8985 42.4292 45.0775 42.6625 45.2115C42.8958 45.3455 43.1534 45.4318 43.4204 45.4654C43.6873 45.499 43.9583 45.4792 44.2175 45.4073C44.4768 45.3353 44.7192 45.2125 44.9306 45.0461C45.142 44.8797 45.3183 44.673 45.4491 44.4379C45.58 44.2028 45.6629 43.9441 45.6929 43.6767C45.723 43.4094 45.6996 43.1387 45.6242 42.8804C45.5488 42.6221 45.4228 42.3814 45.2536 42.1722C42.2821 38.396 37.6555 35.9806 32.5001 35.9806Z" fill="white"/>
    </symbol>


    <symbol viewBox="0 0 65 66" xmlns="http://www.w3.org/2000/svg" id="dif2">
     <path d="M11.5104 7.54346C9.66388 7.54346 8.125 9.08234 8.125 10.9289V19.0539C8.125 20.6385 9.34489 21.8029 10.8333 22.1563V50.1997C10.8333 55.0367 14.7984 59.0018 19.6354 59.0018H45.3646C50.2016 59.0018 54.1667 55.0367 54.1667 50.1997V22.1563C55.6551 21.8029 56.875 20.6385 56.875 19.0539V10.9289C56.875 9.08234 55.3361 7.54346 53.4896 7.54346H11.5104ZM12.1875 11.606H52.8125V18.3768H12.1875V11.606ZM14.8958 22.4393H50.1042V50.1997C50.1042 52.8404 48.0053 54.9393 45.3646 54.9393H19.6354C16.9947 54.9393 14.8958 52.8404 14.8958 50.1997V22.4393ZM26.4062 30.5643C26.1371 30.5605 25.8698 30.6102 25.6201 30.7106C25.3703 30.811 25.1429 30.96 24.9513 31.149C24.7596 31.338 24.6074 31.5632 24.5035 31.8115C24.3996 32.0598 24.3461 32.3263 24.3461 32.5955C24.3461 32.8647 24.3996 33.1312 24.5035 33.3796C24.6074 33.6279 24.7596 33.8531 24.9513 34.0421C25.1429 34.2311 25.3703 34.3801 25.6201 34.4805C25.8698 34.5809 26.1371 34.6306 26.4062 34.6268H38.5938C38.8629 34.6306 39.1302 34.5809 39.3799 34.4805C39.6297 34.3801 39.857 34.2311 40.0487 34.0421C40.2404 33.8531 40.3926 33.6279 40.4965 33.3796C40.6004 33.1312 40.6539 32.8647 40.6539 32.5955C40.6539 32.3263 40.6004 32.0598 40.4965 31.8115C40.3926 31.5632 40.2404 31.338 40.0487 31.149C39.857 30.96 39.6297 30.811 39.3799 30.7106C39.1302 30.6102 38.8629 30.5605 38.5938 30.5643H26.4062Z" fill="white"/>
    </symbol>


    <symbol viewBox="0 0 65 66" xmlns="http://www.w3.org/2000/svg" id="dif3">
      <path d="M27.7603 6.18896C24.6504 6.18896 22.0806 8.58127 21.7354 11.6056H16.927C13.5856 11.6056 10.8333 14.358 10.8333 17.6994V54.2619C10.8333 57.6033 13.5856 60.3556 16.927 60.3556H48.0728C51.4142 60.3556 54.1666 57.6033 54.1666 54.2619V17.6994C54.1666 14.358 51.4142 11.6056 48.0728 11.6056H43.2645C42.9193 8.58127 40.3495 6.18896 37.2395 6.18896H27.7603ZM27.7603 10.2515H37.2395C38.3858 10.2515 39.2708 11.1364 39.2708 12.2827C39.2708 13.429 38.3858 14.314 37.2395 14.314H27.7603C26.614 14.314 25.7291 13.429 25.7291 12.2827C25.7291 11.1364 26.614 10.2515 27.7603 10.2515ZM16.927 15.6681H22.7087C23.8078 17.2957 25.6678 18.3765 27.7603 18.3765H37.2395C39.3321 18.3765 41.192 17.2957 42.2912 15.6681H48.0728C49.2191 15.6681 50.1041 16.5531 50.1041 17.6994V54.2619C50.1041 55.4082 49.2191 56.2931 48.0728 56.2931H16.927C15.7807 56.2931 14.8958 55.4082 14.8958 54.2619V17.6994C14.8958 16.5531 15.7807 15.6681 16.927 15.6681ZM42.6165 27.8371C42.089 27.8525 41.5881 28.0726 41.22 28.4507L29.1145 40.5562L23.7798 35.2216C23.5927 35.0266 23.3685 34.871 23.1204 34.7638C22.8723 34.6566 22.6054 34.5999 22.3351 34.5972C22.0649 34.5944 21.7968 34.6456 21.5466 34.7478C21.2964 34.8499 21.0691 35.001 20.878 35.1921C20.6869 35.3832 20.5359 35.6105 20.4337 35.8607C20.3316 36.1109 20.2804 36.3789 20.2831 36.6492C20.2859 36.9194 20.3425 37.1864 20.4497 37.4344C20.5569 37.6825 20.7126 37.9067 20.9075 38.0939L27.6783 44.8647C28.0593 45.2455 28.5759 45.4594 29.1145 45.4594C29.6531 45.4594 30.1697 45.2455 30.5507 44.8647L44.0923 31.323C44.3854 31.0376 44.5854 30.6704 44.6663 30.2694C44.7472 29.8685 44.7052 29.4524 44.5457 29.0757C44.3862 28.699 44.1167 28.3793 43.7725 28.1583C43.4283 27.9373 43.0254 27.8253 42.6165 27.8371Z" fill="white"/>
    </symbol>

    <symbol viewBox="0 0 65 66" xmlns="http://www.w3.org/2000/svg" id="dif4">
      <path d="M32.5 10.2515C22.3573 10.2515 13.9886 17.9838 12.973 27.8556H12.1875C5.47083 27.8556 0 33.3265 0 40.0431C0 46.7598 5.47083 52.2306 12.1875 52.2306H26.758C26.5278 51.5942 26.4062 50.9171 26.4062 50.1994V48.1681H12.1875C7.70521 48.1681 4.0625 44.5254 4.0625 40.0431C4.0625 35.5608 7.70521 31.9181 12.1875 31.9181H14.8958C16.0198 31.9181 16.9271 31.0108 16.9271 29.8869C16.9271 21.3015 23.9146 14.314 32.5 14.314C41.0854 14.314 48.0729 21.3015 48.0729 29.8869C48.0729 31.0108 48.9802 31.9181 50.1042 31.9181H52.8125C57.2948 31.9181 60.9375 35.5608 60.9375 40.0431C60.9375 44.5254 57.2948 48.1681 52.8125 48.1681H38.5938V50.1994C38.5938 50.9171 38.4722 51.5942 38.242 52.2306H52.8125C59.5292 52.2306 65 46.7598 65 40.0431C65 33.3265 59.5292 27.8556 52.8125 27.8556H52.027C51.0114 17.9838 42.6427 10.2515 32.5 10.2515ZM32.3995 25.1499C31.9201 25.174 31.4647 25.367 31.1141 25.6948L20.9578 35.174C20.7527 35.3532 20.5857 35.5719 20.4669 35.817C20.348 36.0622 20.2796 36.3287 20.2658 36.6008C20.252 36.8728 20.2931 37.1449 20.3866 37.4008C20.4801 37.6567 20.6241 37.8911 20.8101 38.0902C20.9961 38.2893 21.2202 38.449 21.4691 38.5597C21.718 38.6704 21.9866 38.7299 22.259 38.7347C22.5314 38.7395 22.802 38.6894 23.0546 38.5875C23.3073 38.4856 23.5368 38.3339 23.7297 38.1415L30.4688 31.8547V50.1994C30.4649 50.4685 30.5147 50.7358 30.615 50.9856C30.7154 51.2353 30.8644 51.4627 31.0534 51.6544C31.2424 51.8461 31.4676 51.9983 31.716 52.1022C31.9643 52.2061 32.2308 52.2596 32.5 52.2596C32.7692 52.2596 33.0357 52.2061 33.284 52.1022C33.5324 51.9983 33.7576 51.8461 33.9466 51.6544C34.1356 51.4627 34.2846 51.2353 34.385 50.9856C34.4853 50.7358 34.5351 50.4685 34.5312 50.1994V31.8547L41.2703 38.1415C41.4632 38.3339 41.6927 38.4856 41.9454 38.5875C42.198 38.6894 42.4686 38.7395 42.741 38.7347C43.0134 38.7299 43.282 38.6704 43.5309 38.5597C43.7798 38.449 44.0039 38.2893 44.1899 38.0902C44.3759 37.8911 44.5199 37.6567 44.6134 37.4008C44.7069 37.1449 44.748 36.8728 44.7342 36.6008C44.7204 36.3287 44.652 36.0622 44.5331 35.817C44.4143 35.5719 44.2473 35.3532 44.0422 35.174L33.8859 25.6948C33.6872 25.5091 33.4533 25.3652 33.198 25.2716C32.9426 25.178 32.6711 25.1366 32.3995 25.1499Z" fill="white"/>
    </symbol>

    
    <symbol viewBox="0 0 48 48" xmlns="http://www.w3.org/2000/svg" id="offers1">
      <path d="M17 3C10.3953 3 5 8.35683 5 14.9355C5 19.2175 6.57666 22.944 8.83203 25.6191C10.706 27.8419 13.0557 29.378 15.5 29.8398V30.5C15.4972 30.6988 15.5339 30.8961 15.608 31.0806C15.6822 31.265 15.7922 31.4329 15.9318 31.5745C16.0713 31.716 16.2376 31.8284 16.421 31.9051C16.6044 31.9819 16.8012 32.0214 17 32.0214C17.1988 32.0214 17.3956 31.9819 17.579 31.9051C17.7624 31.8284 17.9287 31.716 18.0682 31.5745C18.2078 31.4329 18.3178 31.265 18.392 31.0806C18.4661 30.8961 18.5028 30.6988 18.5 30.5V29.8398C20.5621 29.4502 22.5556 28.2993 24.2539 26.6094C24.9645 28.3106 25.9309 29.8028 27.0547 30.998C28.3543 32.3803 29.8731 33.4032 31.5 33.8066V34.5C31.4972 34.6988 31.5339 34.8961 31.608 35.0806C31.6822 35.265 31.7922 35.4329 31.9318 35.5745C32.0713 35.716 32.2376 35.8284 32.421 35.9051C32.6044 35.9819 32.8012 36.0214 33 36.0214C33.1988 36.0214 33.3956 35.9819 33.579 35.9051C33.7624 35.8284 33.9287 35.716 34.0682 35.5745C34.2078 35.4329 34.3178 35.265 34.392 35.0806C34.4661 34.8961 34.5028 34.6988 34.5 34.5V33.7988C36.5306 33.3024 38.395 31.8564 39.8789 29.8984C41.7225 27.4659 43 24.1563 43 20.4512C43 14.7374 38.5476 10 33 10C31.3351 10 29.7661 10.4396 28.3867 11.1934C26.8008 6.44213 22.292 3 17 3ZM17 6C21.9933 6 26 9.98827 26 14.9355C26 18.4796 24.6884 21.5347 22.875 23.6855C21.1123 25.7763 18.8877 26.9252 17.1523 26.9883C17.094 26.9816 17.0353 26.9783 16.9766 26.9785C16.9315 26.9791 16.8866 26.9817 16.8418 26.9863C15.1073 26.9209 12.8857 25.774 11.125 23.6855C9.31162 21.5347 8 18.4796 8 14.9355C8 9.98827 12.0067 6 17 6ZM33 13C36.8404 13 40 16.277 40 20.4512C40 23.46 38.9384 26.1744 37.4883 28.0879C36.091 29.9316 34.3529 30.9163 33.1406 30.9863C33.0861 30.9807 33.0314 30.9781 32.9766 30.9785C32.9309 30.9797 32.8852 30.9829 32.8398 30.9883C31.8324 30.9237 30.4706 30.252 29.2402 28.9434C28.0557 27.6835 27.0245 25.8915 26.4648 23.8184C28.0002 21.3686 29 18.3314 29 14.9355C29 14.7451 28.9796 14.5594 28.9707 14.3711C30.1168 13.5043 31.4963 13 33 13ZM14.5 33C14.1022 33 13.7206 33.158 13.4393 33.4393C13.158 33.7206 13 34.1022 13 34.5C13 34.8978 13.158 35.2794 13.4393 35.5607C13.7206 35.842 14.1022 36 14.5 36C14.8978 36 15.2794 35.842 15.5607 35.5607C15.842 35.2794 16 34.8978 16 34.5C16 34.1022 15.842 33.7206 15.5607 33.4393C15.2794 33.158 14.8978 33 14.5 33ZM16.5 37C16.1022 37 15.7206 37.158 15.4393 37.4393C15.158 37.7206 15 38.1022 15 38.5C15 38.8978 15.158 39.2794 15.4393 39.5607C15.7206 39.842 16.1022 40 16.5 40C16.8978 40 17.2794 39.842 17.5607 39.5607C17.842 39.2794 18 38.8978 18 38.5C18 38.1022 17.842 37.7206 17.5607 37.4393C17.2794 37.158 16.8978 37 16.5 37ZM30.5 37C30.1022 37 29.7206 37.158 29.4393 37.4393C29.158 37.7206 29 38.1022 29 38.5C29 38.8978 29.158 39.2794 29.4393 39.5607C29.7206 39.842 30.1022 40 30.5 40C30.8978 40 31.2794 39.842 31.5607 39.5607C31.842 39.2794 32 38.8978 32 38.5C32 38.1022 31.842 37.7206 31.5607 37.4393C31.2794 37.158 30.8978 37 30.5 37ZM14.5 41C14.1022 41 13.7206 41.158 13.4393 41.4393C13.158 41.7206 13 42.1022 13 42.5C13 42.8978 13.158 43.2794 13.4393 43.5607C13.7206 43.842 14.1022 44 14.5 44C14.8978 44 15.2794 43.842 15.5607 43.5607C15.842 43.2794 16 42.8978 16 42.5C16 42.1022 15.842 41.7206 15.5607 41.4393C15.2794 41.158 14.8978 41 14.5 41ZM32.5 41C32.1022 41 31.7206 41.158 31.4393 41.4393C31.158 41.7206 31 42.1022 31 42.5C31 42.8978 31.158 43.2794 31.4393 43.5607C31.7206 43.842 32.1022 44 32.5 44C32.8978 44 33.2794 43.842 33.5607 43.5607C33.842 43.2794 34 42.8978 34 42.5C34 42.1022 33.842 41.7206 33.5607 41.4393C33.2794 41.158 32.8978 41 32.5 41Z" fill="white"/>
    </symbol>

    
    <symbol viewBox="0 0 48 48" xmlns="http://www.w3.org/2000/svg" id="offers2">
      <path d="M24 5C16.8383 5 11 10.8383 11 18V29.8789L7.56058 26.4395C7.42076 26.2955 7.25347 26.181 7.06862 26.1028C6.88376 26.0247 6.68511 25.9844 6.4844 25.9844C6.18588 25.9844 5.89417 26.0736 5.64659 26.2404C5.39901 26.4072 5.20683 26.644 5.09462 26.9207C4.98242 27.1973 4.9553 27.5011 5.01673 27.7932C5.07816 28.0854 5.22536 28.3525 5.43948 28.5605L11.3106 34.4316C11.4512 34.6149 11.6322 34.7633 11.8395 34.8652C12.0468 34.967 12.2749 35.0196 12.5059 35.0189C12.7369 35.0181 12.9646 34.964 13.1712 34.8608C13.3779 34.7576 13.5579 34.608 13.6973 34.4238L19.5606 28.5605C19.7045 28.4223 19.8195 28.2568 19.8986 28.0736C19.9778 27.8904 20.0196 27.6932 20.0217 27.4937C20.0237 27.2941 19.9859 27.0962 19.9105 26.9114C19.835 26.7266 19.7235 26.5588 19.5824 26.4177C19.4412 26.2766 19.2734 26.165 19.0886 26.0896C18.9039 26.0141 18.7059 25.9763 18.5063 25.9784C18.3068 25.9804 18.1096 26.0222 17.9264 26.1014C17.7433 26.1806 17.5777 26.2955 17.4395 26.4395L14 29.8789V18C14 12.4597 18.4598 8 24 8C26.5957 8 28.937 8.98895 30.7188 10.6094C30.8632 10.749 31.0342 10.8581 31.2216 10.9304C31.409 11.0026 31.6089 11.0365 31.8097 11.0301C32.0104 11.0236 32.2078 10.9769 32.3902 10.8927C32.5725 10.8085 32.7361 10.6885 32.8712 10.54C33.0063 10.3914 33.1102 10.2171 33.1768 10.0276C33.2433 9.83814 33.2711 9.63721 33.2585 9.43676C33.246 9.23631 33.1933 9.04043 33.1036 8.86072C33.0139 8.68102 32.889 8.52116 32.7364 8.39062C30.4321 6.29505 27.3624 5 24 5ZM35.4766 12.9785C35.2479 12.9822 35.023 13.0381 34.8192 13.1421C34.6154 13.246 34.4381 13.3951 34.3008 13.5781L28.4395 19.4395C28.2955 19.5777 28.1806 19.7432 28.1014 19.9264C28.0222 20.1096 27.9804 20.3068 27.9784 20.5063C27.9764 20.7059 28.0142 20.9038 28.0896 21.0886C28.165 21.2734 28.2766 21.4412 28.4177 21.5823C28.5588 21.7234 28.7267 21.835 28.9114 21.9104C29.0962 21.9859 29.2942 22.0237 29.4937 22.0216C29.6933 22.0196 29.8904 21.9778 30.0736 21.8986C30.2568 21.8194 30.4224 21.7045 30.5606 21.5605L34 18.1211V30C34 35.5403 29.5403 40 24 40C21.4044 40 19.063 39.0111 17.2813 37.3906C17.1369 37.251 16.9659 37.1419 16.7785 37.0696C16.5911 36.9974 16.3911 36.9635 16.1904 36.9699C15.9896 36.9764 15.7922 37.0231 15.6099 37.1073C15.4275 37.1915 15.264 37.3115 15.1288 37.46C14.9937 37.6086 14.8898 37.7829 14.8233 37.9724C14.7568 38.1619 14.7289 38.3628 14.7415 38.5632C14.7541 38.7637 14.8068 38.9596 14.8965 39.1393C14.9862 39.319 15.1111 39.4788 15.2637 39.6094C17.5679 41.7049 20.6377 43 24 43C31.1618 43 37 37.1617 37 30V18.1211L40.4395 21.5605C40.5777 21.7045 40.7433 21.8194 40.9264 21.8986C41.1096 21.9778 41.3068 22.0196 41.5063 22.0216C41.7059 22.0237 41.9039 21.9859 42.0886 21.9104C42.2734 21.835 42.4412 21.7234 42.5824 21.5823C42.7235 21.4412 42.835 21.2734 42.9105 21.0886C42.9859 20.9038 43.0237 20.7059 43.0217 20.5063C43.0196 20.3068 42.9778 20.1096 42.8986 19.9264C42.8195 19.7432 42.7045 19.5777 42.5606 19.4395L36.6895 13.5684C36.5474 13.3822 36.3637 13.2319 36.1531 13.1294C35.9424 13.027 35.7108 12.9753 35.4766 12.9785Z" fill="white"/>
    </symbol>



    
    



</svg>