<svg width="85" height="87" viewBox="0 0 85 87" fill="none" xmlns="http://www.w3.org/2000/svg">
<path d="M74 37.9258C74 58.3603 57.4345 74.9258 37 74.9258C16.5655 74.9258 0 58.3603 0 37.9258C0 17.4912 16.5655 0.925781 37 0.925781C57.4345 0.925781 74 17.4912 74 37.9258Z" fill="#9C21FD"/>
<path d="M37 17.9258C25.972 17.9258 17 26.8978 17 37.9258C17 41.1118 17.77 44.2688 19.232 47.0978L17.093 54.7548C16.851 55.6218 17.096 56.5568 17.733 57.1938C18.208 57.6688 18.848 57.9258 19.504 57.9258C19.728 57.9258 19.953 57.8958 20.174 57.8338L27.835 55.6948C30.662 57.1558 33.817 57.9258 37 57.9258C48.028 57.9258 57 48.9538 57 37.9258C57 26.8978 48.028 17.9258 37 17.9258ZM35.5 28.4258C35.5 27.5978 36.171 26.9258 37 26.9258C37.829 26.9258 38.5 27.5978 38.5 28.4258V40.4258C38.5 41.2538 37.829 41.9258 37 41.9258C36.171 41.9258 35.5 41.2538 35.5 40.4258V28.4258ZM37 48.9258C35.895 48.9258 35 48.0308 35 46.9258C35 45.8208 35.895 44.9258 37 44.9258C38.105 44.9258 39 45.8208 39 46.9258C39 48.0308 38.105 48.9258 37 48.9258Z" fill="white"/>
<circle cx="64.5" cy="66.4258" r="17.5" fill="url(#paint0_linear_9501_69)" stroke="#363866" stroke-width="6"/>
<path d="M67.5941 73.9258H63.8101V64.0918L61.3461 66.5778L59.1901 64.3118L64.3161 59.2518H67.5941V73.9258Z" fill="#3E4A08"/>
<defs>
<linearGradient id="paint0_linear_9501_69" x1="78.0051" y1="81.8112" x2="60.5617" y2="46.7433" gradientUnits="userSpaceOnUse">
<stop stop-color="#88CB1A"/>
<stop offset="1" stop-color="#F2FF5B"/>
</linearGradient>
</defs>
</svg>
