<svg width="85" height="87" viewBox="0 0 85 87" fill="none" xmlns="http://www.w3.org/2000/svg">
<path d="M74 37.9258C74 58.3603 57.4345 74.9258 37 74.9258C16.5655 74.9258 0 58.3603 0 37.9258C0 17.4912 16.5655 0.925781 37 0.925781C57.4345 0.925781 74 17.4912 74 37.9258Z" fill="#92A7FF"/>
<path d="M53.139 40.2077C52.426 39.6847 52 38.8447 52 37.9597C52 37.0747 52.426 36.2347 53.138 35.7127L56.432 33.2977C56.957 32.9117 57.174 32.2327 56.969 31.6137C56.121 29.0657 54.78 26.7417 52.982 24.7047C52.549 24.2167 51.851 24.0627 51.254 24.3247L47.545 25.9557C46.737 26.3117 45.796 26.2607 45.029 25.8177C44.263 25.3757 43.749 24.5877 43.652 23.7087L43.206 19.6367C43.135 18.9887 42.653 18.4607 42.015 18.3297C39.418 17.7987 36.689 17.7897 34.046 18.3197C33.404 18.4487 32.921 18.9767 32.85 19.6277L32.408 23.6737C32.311 24.5537 31.797 25.3417 31.029 25.7837C30.263 26.2257 29.325 26.2787 28.514 25.9217L24.785 24.2817C24.193 24.0197 23.493 24.1717 23.06 24.6587C21.256 26.6877 19.909 29.0087 19.052 31.5547C18.844 32.1727 19.06 32.8557 19.587 33.2427L22.86 35.6427C23.574 36.1667 24 37.0067 24 37.8917C24 38.7767 23.574 39.6167 22.862 40.1387L19.568 42.5537C19.043 42.9397 18.826 43.6187 19.031 44.2377C19.879 46.7857 21.22 49.1097 23.018 51.1467C23.451 51.6357 24.151 51.7907 24.746 51.5267L28.455 49.8957C29.263 49.5397 30.203 49.5907 30.971 50.0337C31.737 50.4757 32.251 51.2637 32.348 52.1427L32.794 56.2147C32.865 56.8627 33.347 57.3907 33.985 57.5217C35.299 57.7897 36.649 57.9257 38 57.9257C39.318 57.9257 40.648 57.7927 41.953 57.5307C42.595 57.4017 43.078 56.8737 43.149 56.2227L43.592 52.1767C43.689 51.2967 44.203 50.5087 44.971 50.0667C45.737 49.6257 46.676 49.5737 47.486 49.9287L51.215 51.5687C51.809 51.8317 52.507 51.6797 52.94 51.1917C54.744 49.1627 56.091 46.8417 56.948 44.2957C57.156 43.6777 56.94 42.9947 56.413 42.6077L53.139 40.2077ZM38 44.9257C34.134 44.9257 31 41.7917 31 37.9257C31 34.0597 34.134 30.9257 38 30.9257C41.866 30.9257 45 34.0597 45 37.9257C45 41.7917 41.866 44.9257 38 44.9257Z" fill="white"/>
<circle cx="64.5" cy="66.4258" r="17.5" fill="url(#paint0_linear_9501_71)" stroke="#363866" stroke-width="6"/>
<path d="M63.8068 74.1898C62.4575 74.1898 61.2548 73.9771 60.1988 73.5518C59.1575 73.1264 58.3361 72.5691 57.7348 71.8798L59.6488 69.3058C60.1475 69.8044 60.7635 70.1858 61.4968 70.4498C62.2448 70.7138 62.9635 70.8458 63.6528 70.8458C64.4448 70.8458 65.0535 70.7138 65.4788 70.4498C65.9041 70.1858 66.1168 69.8411 66.1168 69.4158C66.1168 68.9904 65.9188 68.6824 65.5228 68.4918C65.1415 68.2864 64.4668 68.1838 63.4988 68.1838C62.3255 68.1838 61.6655 68.1911 61.5188 68.2058V64.8398C61.7095 64.8544 62.3695 64.8618 63.4988 64.8618C65.0828 64.8618 65.8748 64.4804 65.8748 63.7178C65.8748 63.2778 65.6475 62.9478 65.1928 62.7278C64.7381 62.4931 64.1441 62.3758 63.4108 62.3758C62.0321 62.3758 60.8148 62.8451 59.7588 63.7838L57.9328 61.4078C59.3408 59.8238 61.2988 59.0318 63.8068 59.0318C65.6548 59.0318 67.0848 59.3984 68.0968 60.1318C69.1235 60.8504 69.6368 61.8258 69.6368 63.0578C69.6368 63.8938 69.3215 64.6198 68.6908 65.2358C68.0748 65.8371 67.3195 66.2111 66.4248 66.3578C67.3048 66.4458 68.0968 66.8051 68.8008 67.4358C69.5195 68.0518 69.8788 68.8511 69.8788 69.8338C69.8788 71.1244 69.3215 72.1731 68.2068 72.9798C67.0921 73.7864 65.6255 74.1898 63.8068 74.1898Z" fill="#3E4A08"/>
<defs>
<linearGradient id="paint0_linear_9501_71" x1="78.0051" y1="81.8112" x2="60.5617" y2="46.7433" gradientUnits="userSpaceOnUse">
<stop stop-color="#88CB1A"/>
<stop offset="1" stop-color="#F2FF5B"/>
</linearGradient>
</defs>
</svg>
