<svg width="85" height="87" viewBox="0 0 85 87" fill="none" xmlns="http://www.w3.org/2000/svg">
<path d="M74 37.9258C74 58.3603 57.4345 74.9258 37 74.9258C16.5655 74.9258 0 58.3603 0 37.9258C0 17.4912 16.5655 0.925781 37 0.925781C57.4345 0.925781 74 17.4912 74 37.9258Z" fill="#C91C5B"/>
<path d="M22.5 22.9258C20.57 22.9258 19 24.4958 19 26.4258V45.4258C19 47.3558 20.57 48.9258 22.5 48.9258H53.5C55.43 48.9258 57 47.3558 57 45.4258V26.4258C57 24.4958 55.43 22.9258 53.5 22.9258H22.5ZM33.8984 30.4297C34.0677 30.4222 34.2427 30.4574 34.4102 30.5449L42.9707 35.0449C43.6807 35.4249 43.6807 36.4464 42.9707 36.8164L34.4102 41.3262C33.7402 41.6762 32.9395 41.1855 32.9395 40.4355V31.4258C32.9395 30.8633 33.3908 30.4522 33.8984 30.4297ZM16.5 51.9258C16.3012 51.923 16.1039 51.9597 15.9194 52.0338C15.735 52.1079 15.5671 52.218 15.4255 52.3575C15.284 52.4971 15.1716 52.6634 15.0949 52.8468C15.0181 53.0302 14.9786 53.227 14.9786 53.4258C14.9786 53.6246 15.0181 53.8214 15.0949 54.0048C15.1716 54.1881 15.284 54.3545 15.4255 54.494C15.5671 54.6336 15.735 54.7436 15.9194 54.8177C16.1039 54.8919 16.3012 54.9286 16.5 54.9258H59.5C59.6988 54.9286 59.8961 54.8919 60.0806 54.8177C60.265 54.7436 60.4329 54.6336 60.5745 54.494C60.716 54.3545 60.8284 54.1881 60.9051 54.0048C60.9819 53.8214 61.0214 53.6246 61.0214 53.4258C61.0214 53.227 60.9819 53.0302 60.9051 52.8468C60.8284 52.6634 60.716 52.4971 60.5745 52.3575C60.4329 52.218 60.265 52.1079 60.0806 52.0338C59.8961 51.9597 59.6988 51.923 59.5 51.9258H16.5Z" fill="white"/>
<circle cx="64.5" cy="66.4258" r="17.5" fill="url(#paint0_linear_9501_70)" stroke="#363866" stroke-width="6"/>
<path d="M69.7924 73.9258H58.2864V70.9778C61.5424 68.6311 63.6104 67.0471 64.4904 66.2258C65.385 65.4044 65.8324 64.6344 65.8324 63.9158C65.8324 63.4318 65.6344 63.0578 65.2384 62.7938C64.857 62.5151 64.3804 62.3758 63.8084 62.3758C62.3417 62.3758 61.0364 62.9111 59.8924 63.9818L57.8024 61.4738C58.5504 60.6524 59.4524 60.0438 60.5084 59.6478C61.5644 59.2371 62.6424 59.0318 63.7424 59.0318C65.4877 59.0318 66.9104 59.4791 68.0104 60.3738C69.125 61.2684 69.6824 62.4491 69.6824 63.9158C69.6824 65.0158 69.2717 66.0864 68.4504 67.1278C67.629 68.1691 66.287 69.3351 64.4244 70.6258H69.7924V73.9258Z" fill="#3E4A08"/>
<defs>
<linearGradient id="paint0_linear_9501_70" x1="78.0051" y1="81.8112" x2="60.5617" y2="46.7433" gradientUnits="userSpaceOnUse">
<stop stop-color="#88CB1A"/>
<stop offset="1" stop-color="#F2FF5B"/>
</linearGradient>
</defs>
</svg>
