<svg width="85" height="87" viewBox="0 0 85 87" fill="none" xmlns="http://www.w3.org/2000/svg">
<path d="M74 37.9258C74 58.3603 57.4345 74.9258 37 74.9258C16.5655 74.9258 0 58.3603 0 37.9258C0 17.4912 16.5655 0.925781 37 0.925781C57.4345 0.925781 74 17.4912 74 37.9258Z" fill="#E4B701"/>
<path d="M37 16.9258C36.6765 16.9258 36.3531 17.0069 36.0586 17.1699C34.1496 18.2279 30 21.1181 30 26.2441V47.6953C30 49.2192 31.0575 50.4872 32.4766 50.8281C32.1758 51.4536 32 52.1503 32 52.8945C32 54.2924 32.6602 55.3315 33.3262 56.4023C33.9921 57.4732 34.7566 58.4633 35.2734 59.1035C36.139 60.1758 37.8626 60.1737 38.7266 59.1035C39.2439 58.4627 40.008 57.4712 40.6738 56.4004C41.3396 55.3296 42 54.2921 42 52.8945C42 52.154 41.8212 51.4589 41.5273 50.8262C42.9442 50.4837 44 49.2177 44 47.6953V26.2441C44 21.1181 39.8514 18.2279 37.9414 17.1699C37.6469 17.0069 37.3235 16.9258 37 16.9258ZM37 26.9258C38.105 26.9258 39 27.8208 39 28.9258C39 30.0308 38.105 30.9258 37 30.9258C35.895 30.9258 35 30.0308 35 28.9258C35 27.8208 35.895 26.9258 37 26.9258ZM28 38.3203L22.9531 43.3652C21.6811 44.6372 21.6811 46.7007 22.9531 47.9727C23.7231 48.7427 24.8285 49.0763 25.8965 48.8633L28 48.4414V38.3203ZM46 38.3203V48.4414L48.1035 48.8633C49.1715 49.0763 50.2769 48.7427 51.0469 47.9727C52.3189 46.7007 52.3189 44.6372 51.0469 43.3652L46 38.3203ZM36.8066 50.9258H37.1933C38.2193 51.0259 39 51.8423 39 52.8945C39 52.94 38.6839 53.9207 38.1269 54.8164C37.7651 55.3983 37.3824 55.8728 37 56.377C36.6178 55.873 36.2348 55.4002 35.873 54.8184C35.316 53.9225 35 52.9397 35 52.8945C35 51.8423 35.7807 51.0259 36.8066 50.9258Z" fill="white"/>
<circle cx="64.5" cy="66.4258" r="17.5" fill="url(#paint0_linear_9501_72)" stroke="#363866" stroke-width="6"/>
<path d="M68.5297 73.9258H64.7237V71.2418H57.7057V68.2938L63.2717 59.2518H68.5297V67.9198H70.3117V71.2418H68.5297V73.9258ZM64.7237 67.9198V62.5518L61.3797 67.9198H64.7237Z" fill="#3E4A08"/>
<defs>
<linearGradient id="paint0_linear_9501_72" x1="78.0051" y1="81.8112" x2="60.5617" y2="46.7433" gradientUnits="userSpaceOnUse">
<stop stop-color="#88CB1A"/>
<stop offset="1" stop-color="#F2FF5B"/>
</linearGradient>
</defs>
</svg>
