<svg width="28" height="26" viewBox="0 0 28 26" fill="none" xmlns="http://www.w3.org/2000/svg">
<path d="M13.9264 1.97902e-05C13.5403 -0.00238379 13.1865 0.214321 13.0141 0.558767L9.5362 7.49512L1.27792 8.76249C0.90099 8.82057 0.588759 9.08494 0.470154 9.44643C0.351548 9.80791 0.446692 10.2052 0.716298 10.4742L6.4288 16.1708L5.15657 24.4153C5.09853 24.7914 5.25748 25.1682 5.56772 25.3898C5.87796 25.6114 6.28679 25.6403 6.62524 25.4644L13.9198 21.6689L21.2143 25.4644C21.5528 25.6403 21.9616 25.6114 22.2719 25.3898C22.5821 25.1682 22.741 24.7914 22.683 24.4153L21.4108 16.1708L27.1233 10.4742C27.3929 10.2052 27.488 9.80791 27.3694 9.44643C27.2508 9.08494 26.9386 8.82057 26.5616 8.76249L18.3034 7.49512L14.8255 0.558767C14.6552 0.218557 14.3077 0.00259725 13.9264 1.97902e-05Z" fill="url(#paint0_linear_3810_1830)"/>
<defs>
<linearGradient id="paint0_linear_3810_1830" x1="26.4934" y1="26.3596" x2="11.6152" y2="-5.2129" gradientUnits="userSpaceOnUse">
<stop stop-color="#88CB1A"/>
<stop offset="1" stop-color="#F2FF5B"/>
</linearGradient>
</defs>
</svg>
