<svg width="290" height="290" viewBox="0 0 290 290" fill="none" xmlns="http://www.w3.org/2000/svg">
<path d="M257.744 141.87L248.615 132.747C245.811 129.944 245.05 125.655 246.73 122.06L252.185 110.369C255.992 102.219 255.581 92.7093 251.074 84.9156C246.579 77.1279 238.549 72.0106 229.583 71.2312L216.721 70.1135C212.775 69.7691 209.434 66.9658 208.413 63.1354L205.078 50.6714C202.752 41.9835 196.324 34.957 187.866 31.8818C179.413 28.8066 169.976 30.0512 162.612 35.2108L152.039 42.6179H152.033C148.788 44.8895 144.432 44.8895 141.188 42.6179L130.621 35.2108C123.256 30.0512 113.825 28.8066 105.361 31.8818C96.9084 34.957 90.474 41.9835 88.148 50.6714L84.813 63.1414C83.7919 66.9658 80.4509 69.7691 76.5057 70.1135L63.643 71.2312C54.6832 72.0106 46.6478 77.1279 42.1467 84.9156C37.6517 92.7033 37.2349 102.219 41.0411 110.363L46.4967 122.06C48.1763 125.648 47.4151 129.944 44.6117 132.747L35.4888 141.864C29.1209 148.22 26.2571 157.307 27.8159 166.158C29.3746 175.015 35.1746 182.573 43.3249 186.367L55.0276 191.823C58.6224 193.496 60.7974 197.266 60.4469 201.218L59.3171 214.068C58.5257 223.028 62.1749 231.825 69.0563 237.607C75.9438 243.388 85.2419 245.449 93.9299 243.117L106.394 239.77C110.224 238.755 114.32 240.229 116.586 243.479L123.987 254.052C129.189 261.435 137.635 265.833 146.637 265.833C155.627 265.833 164.08 261.435 169.233 254.064L176.634 243.485C178.906 240.235 183.014 238.761 186.827 239.776L199.29 243.123C207.972 245.449 217.27 243.395 224.158 237.613C231.052 231.831 234.695 223.028 233.903 214.074L232.773 201.212C232.423 197.266 234.604 193.496 238.199 191.817L249.889 186.367C258.052 182.573 263.852 175.015 265.404 166.158C266.969 157.307 264.105 148.226 257.744 141.87ZM196.723 124.223L136.306 184.639C134.536 186.41 132.216 187.292 129.896 187.292C127.576 187.292 125.256 186.41 123.486 184.639L93.2774 154.431C89.7369 150.897 89.7369 145.151 93.2774 141.617C96.8178 138.076 102.551 138.076 106.092 141.617L129.89 165.415L183.896 111.408C187.437 107.868 193.17 107.868 196.711 111.408C200.257 114.943 200.257 120.682 196.723 124.223Z" fill="url(#paint0_linear_7727_1157)"/>
<defs>
<linearGradient id="paint0_linear_7727_1157" x1="257.645" y1="273.027" x2="116.943" y2="-13.216" gradientUnits="userSpaceOnUse">
<stop stop-color="#88CB1A"/>
<stop offset="1" stop-color="#F2FF5B"/>
</linearGradient>
</defs>
</svg>
