<svg width="78" height="78" viewBox="0 0 78 78" fill="none" xmlns="http://www.w3.org/2000/svg">
<path d="M39 6.5C21.0796 6.5 6.5 21.0796 6.5 39C6.5 56.9204 21.0796 71.5 39 71.5C56.9204 71.5 71.5 56.9204 71.5 39C71.5 21.0796 56.9204 6.5 39 6.5ZM31.6875 29.25C32.3111 29.25 32.9348 29.488 33.4109 29.9641C34.3631 30.9164 34.3631 32.4586 33.4109 33.4109C29.4914 37.3304 23.8014 37.375 23.5625 37.375C22.217 37.375 21.125 36.283 21.125 34.9375C21.125 33.592 22.217 32.5 23.5625 32.5C23.5901 32.5 27.4941 32.4309 29.9641 29.9641C30.4402 29.488 31.0639 29.25 31.6875 29.25ZM46.3125 29.25C46.9361 29.25 47.5598 29.488 48.0359 29.9641C50.5043 32.4325 54.4128 32.5 54.4502 32.5C55.7924 32.513 56.8752 33.6079 56.8687 34.9502C56.8622 36.2908 55.7781 37.375 54.4375 37.375C54.1986 37.375 48.507 37.332 44.5891 33.4109C43.6369 32.4586 43.6369 30.9164 44.5891 29.9641C45.0652 29.488 45.6889 29.25 46.3125 29.25ZM39 43.875C45.0125 43.875 50.5926 46.5827 54.3074 51.3049C55.141 52.3628 54.9542 53.8975 53.8979 54.7295C53.4511 55.0821 52.9169 55.25 52.3904 55.25C51.6689 55.25 50.9559 54.9311 50.4766 54.3201C47.6913 50.7792 43.5078 48.75 39 48.75C34.4923 48.75 30.3087 50.7808 27.5234 54.3201C26.6931 55.3763 25.1616 55.5616 24.1021 54.7263C23.0458 53.8959 22.859 52.3628 23.6926 51.3049C27.4074 46.5843 32.9875 43.875 39 43.875Z" fill="#FF2C60"/>
</svg>
