<svg width="74" height="74" viewBox="0 0 74 74" fill="none" xmlns="http://www.w3.org/2000/svg">
<path d="M74 36.9995C74 57.434 57.4345 73.9995 37 73.9995C16.5655 73.9995 0 57.434 0 36.9995C0 16.565 16.5655 -0.000488281 37 -0.000488281C57.4345 -0.000488281 74 16.565 74 36.9995Z" fill="#9C21FD"/>
<path d="M51.5 51.9995C52.328 51.9995 53 51.3285 53 50.4995V21.4995C53 19.0185 50.981 16.9995 48.5 16.9995H25.5C23.019 16.9995 21 19.0185 21 21.4995V52.4995C21 54.9805 23.019 56.9995 25.5 56.9995H51.5C52.328 56.9995 53 56.3285 53 55.4995C53 54.6705 52.328 53.9995 51.5 53.9995H25.5C24.673 53.9995 24 53.3265 24 52.4995V51.9995H51.5ZM30.5 26.9995H43.5C44.328 26.9995 45 27.6705 45 28.4995C45 29.3285 44.328 29.9995 43.5 29.9995H30.5C29.672 29.9995 29 29.3285 29 28.4995C29 27.6705 29.672 26.9995 30.5 26.9995Z" fill="white"/>
</svg>
