<svg width="74" height="74" viewBox="0 0 74 74" fill="none" xmlns="http://www.w3.org/2000/svg">
<path d="M74 36.9995C74 57.434 57.4345 73.9995 37 73.9995C16.5655 73.9995 0 57.434 0 36.9995C0 16.565 16.5655 -0.000488281 37 -0.000488281C57.4345 -0.000488281 74 16.565 74 36.9995Z" fill="#42B0FF"/>
<path d="M37 16.9995C34.3478 16.9995 31.8043 18.0531 29.9289 19.9284C28.0536 21.8038 27 24.3473 27 26.9995C27 29.6517 28.0536 32.1952 29.9289 34.0706C31.8043 35.9459 34.3478 36.9995 37 36.9995C39.6522 36.9995 42.1957 35.9459 44.0711 34.0706C45.9464 32.1952 47 29.6517 47 26.9995C47 24.3473 45.9464 21.8038 44.0711 19.9284C42.1957 18.0531 39.6522 16.9995 37 16.9995ZM51 39.0991C46.6 39.0991 43 42.6991 43 47.0991C43 48.7991 43.5004 50.2991 44.4004 51.5991L39.5 56.4995C38.9 56.9995 38.9004 57.9991 39.4004 58.5991C39.7004 58.8991 40.1 58.9995 40.5 58.9995C40.9 58.9995 41.2996 58.8991 41.5996 58.5991L46.5 53.6987C47.8 54.5987 49.3 55.0991 51 55.0991C55.4 55.0991 59 51.4991 59 47.0991C59 42.6991 55.4 39.0991 51 39.0991ZM25.5 40.9995C23 40.9995 21 42.9995 21 45.4995V46.9995C21 52.5995 28 56.9995 37 56.9995C37.2 56.2995 37.5 55.5995 38 54.9995L41.9004 51.0991C41.3004 49.8991 41 48.3995 41 46.9995C41 44.6995 41.8 42.6995 43 40.9995H25.5ZM51 41.9995C53.8 41.9995 56 44.1995 56 46.9995C56 49.7995 53.8 51.9995 51 51.9995C48.2 51.9995 46 49.7995 46 46.9995C46 44.1995 48.2 41.9995 51 41.9995Z" fill="white"/>
</svg>
