<svg width="74" height="74" viewBox="0 0 74 74" fill="none" xmlns="http://www.w3.org/2000/svg">
<path d="M74 36.9995C74 57.434 57.4345 73.9995 37 73.9995C16.5655 73.9995 0 57.434 0 36.9995C0 16.565 16.5655 -0.000488281 37 -0.000488281C57.4345 -0.000488281 74 16.565 74 36.9995Z" fill="#48E421"/>
<path d="M23.5 17.9995C21.019 17.9995 19 20.0185 19 22.4995V44.4995C19 46.9805 21.019 48.9995 23.5 48.9995H29V45.9995H23.5C22.673 45.9995 22 45.3265 22 44.4995V43.9995H29V29.4995C29 29.3305 29.0134 29.1655 29.0254 28.9995H26.5C25.671 28.9995 25 28.3285 25 27.4995C25 26.6705 25.671 25.9995 26.5 25.9995H30.0312C31.1882 24.1985 33.205 22.9995 35.5 22.9995H43V22.4995C43 20.0185 40.981 17.9995 38.5 17.9995H23.5ZM35.5 24.9995C33.019 24.9995 31 27.0185 31 29.4995V51.4995C31 53.9805 33.019 55.9995 35.5 55.9995H53.5C54.329 55.9995 55 55.3285 55 54.4995C55 53.6705 54.329 52.9995 53.5 52.9995H35.5C34.673 52.9995 34 52.3265 34 51.4995V50.9995H53.5C54.329 50.9995 55 50.3285 55 49.4995V29.4995C55 27.0185 52.981 24.9995 50.5 24.9995H35.5ZM38.5 32.9995H47.5C48.329 32.9995 49 33.6705 49 34.4995C49 35.3285 48.329 35.9995 47.5 35.9995H38.5C37.671 35.9995 37 35.3285 37 34.4995C37 33.6705 37.671 32.9995 38.5 32.9995Z" fill="white"/>
</svg>
