<svg width="74" height="74" viewBox="0 0 74 74" fill="none" xmlns="http://www.w3.org/2000/svg">
<path d="M74 36.9995C74 57.434 57.4345 73.9995 37 73.9995C16.5655 73.9995 0 57.434 0 36.9995C0 16.565 16.5655 -0.000488281 37 -0.000488281C57.4345 -0.000488281 74 16.565 74 36.9995Z" fill="#FF8A01"/>
<path d="M37 16.9976C25.9723 16.9976 17 25.9699 17 36.9976C17 40.2729 17.8627 43.3344 19.2617 46.064L17.0938 53.8257C16.5888 55.6291 18.3719 57.4121 20.1758 56.9077L27.9434 54.7397C30.6707 56.1358 33.7278 56.9976 37 56.9976C48.0277 56.9976 57 48.0253 57 36.9976C57 25.9699 48.0277 16.9976 37 16.9976ZM37 25.9995C39.757 25.9995 42 28.2425 42 30.9995C42 33.7565 39.757 35.9995 37 35.9995C34.243 35.9995 32 33.7565 32 30.9995C32 28.2425 34.243 25.9995 37 25.9995ZM30.5 39.9995H43.5C44.878 39.9995 46 41.1205 46 42.4995V43.4995C46 43.9455 45.9487 44.3842 45.8477 44.8022C45.7827 45.0732 45.6433 45.3211 45.4453 45.5171C43.1753 47.7631 40.176 48.9995 37 48.9995C33.824 48.9995 30.8257 47.7631 28.5547 45.5171C28.3567 45.3211 28.2154 45.0732 28.1504 44.8022C28.0504 44.3842 28 43.9455 28 43.4995V42.4995C28 41.1205 29.122 39.9995 30.5 39.9995Z" fill="white"/>
</svg>
