<svg width="105" height="105" viewBox="0 0 105 105" fill="none" xmlns="http://www.w3.org/2000/svg">
<circle cx="52.5" cy="52.5" r="52.5" fill="#1F1F1F"/>
<path d="M52.5 21.4736C50.2007 21.4736 47.9014 22.5948 46.6584 24.8393L23.7602 66.2069C21.3453 70.5702 24.6148 76.1248 29.6018 76.1248H75.401C80.388 76.1248 83.6575 70.5702 81.2426 66.2069L58.3415 24.8393C57.0985 22.5948 54.7992 21.4736 52.5 21.4736ZM52.5 25.758C53.2522 25.758 54.0036 26.1669 54.4587 26.9887L77.3598 68.3563C78.2375 69.9422 77.2094 71.6873 75.401 71.6873H29.6018C27.7934 71.6873 26.7653 69.9422 27.643 68.3563L50.5412 26.9887C50.9963 26.1669 51.7477 25.758 52.5 25.758ZM52.4653 37.6347C51.8773 37.6439 51.3171 37.886 50.9076 38.308C50.498 38.73 50.2728 39.2973 50.2812 39.8852V54.6769C50.277 54.9709 50.3314 55.2628 50.441 55.5356C50.5506 55.8085 50.7134 56.0568 50.9198 56.2662C51.1263 56.4756 51.3723 56.6418 51.6435 56.7553C51.9148 56.8688 52.2059 56.9272 52.5 56.9272C52.794 56.9272 53.0851 56.8688 53.3564 56.7553C53.6276 56.6418 53.8736 56.4756 54.0801 56.2662C54.2865 56.0568 54.4493 55.8085 54.5589 55.5356C54.6685 55.2628 54.7229 54.9709 54.7187 54.6769V39.8852C54.723 39.5882 54.6676 39.2934 54.5558 39.0183C54.444 38.7431 54.2781 38.4932 54.068 38.2833C53.8579 38.0735 53.6077 37.9079 53.3324 37.7965C53.0571 37.6851 52.7622 37.63 52.4653 37.6347ZM52.5 61.3331C51.7154 61.3331 50.9629 61.6448 50.4081 62.1996C49.8533 62.7544 49.5416 63.5069 49.5416 64.2915C49.5416 65.0761 49.8533 65.8285 50.4081 66.3833C50.9629 66.9381 51.7154 67.2498 52.5 67.2498C53.2845 67.2498 54.037 66.9381 54.5918 66.3833C55.1466 65.8285 55.4583 65.0761 55.4583 64.2915C55.4583 63.5069 55.1466 62.7544 54.5918 62.1996C54.037 61.6448 53.2845 61.3331 52.5 61.3331Z" fill="url(#paint0_linear_7684_511)"/>
<defs>
<linearGradient id="paint0_linear_7684_511" x1="80.0272" y1="77.7933" x2="48.7324" y2="9.74888" gradientUnits="userSpaceOnUse">
<stop stop-color="#88CB1A"/>
<stop offset="1" stop-color="#F2FF5B"/>
</linearGradient>
</defs>
</svg>
